<svg viewBox="0 0 1440 839" fill="none" xmlns="http://www.w3.org/2000/svg">
<path d="M-7 0.0770428C-7 0.0770428 490.538 -14.8159 550.153 369.528C593.808 650.975 1543 839 1543 839H-7V0.0770428Z" fill="url(#paint0_linear)" fill-opacity="0.11"/>
<path d="M-2 15.9999C-2 15.9999 444.5 1.39148 498 378.391C537.177 654.46 1389 838.892 1389 838.892H-2V15.9999Z" fill="url(#paint1_linear)" fill-opacity="0.27"/>
<path d="M0 36.8916C0 36.8916 305.5 1.39166 359 378.392C398.177 654.46 1250 838.892 1250 838.892H0V36.8916Z" fill="url(#paint2_linear)"/>
<defs>
<linearGradient id="paint0_linear" x1="377.993" y1="103.444" x2="655.295" y2="887.219" gradientUnits="userSpaceOnUse">
<stop stop-color="#37D2C0"/>
<stop offset="1" stop-color="white" stop-opacity="0"/>
</linearGradient>
<linearGradient id="paint1_linear" x1="343.5" y1="117.392" x2="634.5" y2="869.892" gradientUnits="userSpaceOnUse">
<stop stop-color="#37D2C0"/>
<stop offset="1" stop-color="white" stop-opacity="0"/>
</linearGradient>
<linearGradient id="paint2_linear" x1="204.5" y1="117.392" x2="495.5" y2="869.892" gradientUnits="userSpaceOnUse">
<stop stop-color="#37D2C0"/>
<stop offset="1" stop-color="white" stop-opacity="0"/>
</linearGradient>
</defs>
</svg>
